<?xml version="1.0" standalone="no"?>
<!DOCTYPE svg PUBLIC "-//W3C//DTD SVG 20010904//EN"
 "http://www.w3.org/TR/2001/REC-SVG-20010904/DTD/svg10.dtd">
<svg version="1.0" xmlns="http://www.w3.org/2000/svg"
 width="325.000000pt" height="325.000000pt" viewBox="0 0 325.000000 325.000000"
 preserveAspectRatio="xMidYMid meet">
<metadata>
Created by potrace 1.11, written by Peter Selinger 2001-2013
</metadata>
<g transform="translate(0.000000,325.000000) scale(0.100000,-0.100000)"
fill="#000000" stroke="none">
<path d="M1806 3220 c-136 -35 -257 -150 -271 -258 -3 -23 -17 -77 -31 -120
-13 -42 -31 -111 -38 -152 -7 -42 -18 -85 -24 -97 -12 -21 -11 -101 3 -401 l5
-104 -45 60 c-102 136 -232 222 -334 222 -48 0 -147 -38 -188 -71 -57 -48 -72
-217 -29 -341 25 -74 22 -85 -9 -36 -28 44 -75 69 -143 75 -54 5 -60 3 -102
-28 -48 -37 -77 -79 -82 -119 -2 -14 -14 -36 -27 -49 -18 -18 -22 -30 -17 -55
8 -41 70 -100 98 -93 11 3 31 -1 44 -10 27 -17 82 -20 110 -5 11 5 35 12 55
16 28 5 39 2 54 -14 23 -25 26 -25 107 6 l67 25 69 -55 c93 -75 151 -100 230
-100 70 1 70 1 48 -91 l-11 -50 -49 -6 c-31 -3 -51 -11 -58 -23 -9 -15 -13
-14 -47 17 -48 44 -151 114 -151 103 0 -2 17 -15 37 -27 67 -42 153 -119 153
-139 0 -10 12 -28 27 -40 l28 -22 -22 -16 c-11 -10 -37 -30 -58 -45 -62 -49
-68 -117 -9 -117 22 0 23 -2 14 -20 -21 -39 16 -88 54 -74 19 7 22 -16 4 -35
-7 -8 -8 -11 -2 -8 6 4 24 1 41 -5 40 -15 71 -5 130 42 28 22 53 40 56 40 3 0
12 -18 21 -40 13 -32 16 -78 16 -220 l0 -179 -73 -34 c-108 -50 -187 -128
-187 -185 0 -33 72 -57 170 -56 151 1 274 35 443 122 4 2 7 -17 7 -42 0 -33
-4 -46 -14 -46 -26 0 -170 -80 -204 -113 -18 -17 -38 -49 -44 -69 -10 -34 -9
-40 8 -53 10 -7 49 -19 85 -25 75 -13 244 5 334 35 134 45 255 135 255 189 0
16 -14 36 -40 58 -36 32 -40 39 -45 99 -3 35 -12 139 -21 231 -19 211 -15 230
58 281 29 20 72 55 94 79 l42 43 -23 170 c-54 395 -67 497 -62 501 3 3 15 -12
28 -33 25 -41 62 -79 93 -95 14 -8 12 -1 -9 26 -15 20 -24 36 -21 36 4 0 31
-15 60 -34 30 -19 68 -42 85 -50 l31 -16 -39 59 c-21 33 -53 105 -71 160 -37
112 -37 99 10 326 20 96 22 119 13 184 -7 45 -19 84 -32 102 -13 17 -21 43
-21 67 l0 39 81 7 c162 13 259 72 259 156 0 78 -106 155 -250 181 -68 12 -68
12 -80 53 -40 137 -164 242 -345 291 -73 19 -245 28 -299 15z m-143 -438 c97
-71 272 -144 417 -174 58 -12 61 -14 57 -38 -3 -14 -9 -53 -12 -86 -4 -34 -10
-66 -14 -72 -3 -6 -59 -14 -124 -19 l-117 -8 -11 32 c-13 40 -53 73 -88 73
l-26 -1 28 -20 c15 -12 34 -34 42 -50 17 -32 20 -95 5 -104 -5 -3 -10 -11 -10
-16 0 -17 40 11 52 36 9 20 20 24 82 29 39 4 93 9 119 12 l49 6 -4 -43 -3 -44
38 -3 c29 -3 57 7 119 38 68 35 84 40 104 31 39 -18 54 -50 44 -96 -13 -56
-40 -75 -109 -75 l-56 0 3 -79 c6 -112 -15 -176 -72 -229 -153 -141 -420 -163
-571 -47 -19 14 -49 58 -74 107 l-42 83 -6 193 -6 193 25 -6 c20 -5 32 0 56
23 l29 29 47 -24 c59 -30 60 -13 2 21 -36 21 -45 32 -51 63 -9 51 -27 77 -64
93 -17 7 -31 17 -31 22 0 16 71 86 101 98 29 12 38 33 19 45 -16 10 -70 -24
-90 -58 -11 -18 -20 -27 -20 -22 0 15 26 114 39 148 l11 29 41 -34 c22 -18 55
-43 72 -56z m837 58 c12 -8 11 -10 -7 -10 -13 0 -23 5 -23 10 0 13 11 13 30 0z
m-970 -265 c29 -31 39 -111 17 -140 -31 -41 -99 22 -101 94 -1 68 41 92 84 46z
m-375 -246 c31 -11 83 -43 116 -71 232 -193 330 -550 183 -672 l-34 -28 27 52
c77 148 8 385 -165 566 -93 99 -133 128 -203 153 l-54 20 37 0 c21 1 62 -8 93
-20z m-23 -71 c112 -60 219 -191 273 -338 22 -59 28 -93 29 -160 1 -98 -16
-139 -75 -178 -28 -20 -43 -23 -89 -20 -78 6 -145 42 -221 118 -115 116 -188
274 -189 411 0 84 15 131 53 167 53 50 125 50 219 0z m-383 -296 c35 -11 61
-27 77 -47 l23 -30 -37 0 c-20 0 -40 4 -44 10 -11 15 -30 -48 -24 -80 4 -16
20 -46 36 -66 28 -35 28 -37 11 -53 -10 -9 -28 -16 -41 -16 -13 0 -31 -7 -39
-14 -26 -23 -89 -4 -128 38 -34 37 -58 105 -49 140 3 12 29 47 59 79 59 64 69
66 156 39z m1520 -272 c13 -96 36 -272 52 -390 l29 -215 -47 -43 c-54 -50
-158 -105 -241 -128 -49 -13 -257 -23 -267 -12 -6 7 28 313 35 318 4 3 87 77
184 165 154 140 196 186 169 185 -5 -1 -125 -99 -267 -220 l-260 -218 -33 26
c-66 53 -158 192 -137 211 5 4 130 88 278 185 160 106 265 181 258 185 -7 4 3
12 26 20 50 18 121 63 157 101 20 21 31 27 36 18 3 -7 16 -92 28 -188z m-1369
129 c0 -4 -12 -10 -27 -14 -20 -5 -31 -2 -40 11 -19 25 -16 31 15 42 23 8 29
6 39 -12 7 -12 12 -24 13 -27z m55 -72 c20 -27 35 -50 33 -52 -2 -1 -30 -10
-62 -19 -49 -14 -61 -15 -72 -4 -17 17 -7 66 16 73 9 3 22 17 29 31 6 15 13
25 15 23 2 -2 20 -26 41 -52z m974 -46 c-24 -17 -45 -29 -46 -27 -9 9 13 46
31 49 54 11 57 6 15 -22z m-450 -203 c-21 -99 -38 -128 -77 -128 -23 0 -24 2
-17 38 18 99 28 132 38 132 7 0 26 11 42 25 17 13 31 24 31 25 1 0 -7 -41 -17
-92z m-5 -209 c15 -33 50 -87 77 -119 l49 -59 -53 -32 c-28 -17 -82 -53 -119
-80 -72 -52 -95 -59 -105 -32 -6 16 31 57 73 81 17 10 17 12 4 26 -14 14 -21
11 -66 -28 -28 -24 -57 -45 -65 -46 -59 -9 -49 32 21 89 30 24 56 52 58 63 5
25 -1 23 -68 -23 -58 -42 -90 -46 -90 -14 0 20 36 54 108 102 l55 36 -46 14
c-39 11 -47 18 -47 38 0 26 11 31 80 38 104 11 102 11 134 -54z m132 -300 c18
-6 22 -19 29 -91 4 -46 15 -139 25 -208 10 -69 17 -127 15 -129 -2 -2 -24 0
-48 3 -42 6 -45 9 -51 44 -3 20 -6 108 -6 195 0 131 -3 162 -17 184 -17 25
-17 26 7 18 14 -4 35 -11 46 -16z m274 -231 c0 -50 -2 -89 -4 -87 -9 11 -15
179 -6 179 6 0 10 -37 10 -92z m144 -72 c3 -89 9 -206 13 -260 l6 -99 -53 6
c-29 4 -54 8 -56 10 -2 2 -7 116 -11 254 l-6 251 50 -1 50 -1 7 -160z m-434
-150 c0 -3 -28 -21 -61 -42 -34 -20 -90 -63 -124 -95 -34 -33 -68 -59 -74 -59
-27 0 1 56 47 95 57 48 212 122 212 101z m346 -235 c-3 -5 -30 -22 -59 -39
-28 -16 -83 -58 -120 -92 -47 -43 -71 -60 -79 -52 -24 24 46 94 152 151 70 38
118 52 106 32z"/>
<path d="M1740 2569 c-15 -27 -13 -29 28 -29 39 0 114 -30 144 -57 27 -25 21
1 -8 36 -32 39 -51 49 -109 60 -39 7 -47 6 -55 -10z"/>
<path d="M1928 2230 c-23 -17 -28 -29 -27 -63 1 -50 20 -109 38 -115 14 -5 11
50 -4 110 -6 23 -3 29 23 42 45 23 77 20 101 -11 31 -38 36 -69 16 -99 -16
-25 -16 -26 6 -22 28 4 43 46 35 93 -13 67 -133 109 -188 65z"/>
<path d="M2005 2165 c16 -45 17 -56 6 -85 -9 -28 -8 -31 7 -28 27 5 29 78 2
109 -19 20 -21 21 -15 4z"/>
<path d="M975 2250 c-55 -22 -85 -83 -85 -174 0 -129 58 -253 170 -367 60 -61
87 -81 135 -98 89 -33 152 -13 192 62 22 42 22 154 0 226 -66 215 -287 403
-412 351z m167 -47 c28 -15 74 -54 103 -86 188 -207 194 -502 10 -499 -178 4
-396 324 -346 510 13 49 42 88 76 103 32 14 103 1 157 -28z"/>
<path d="M745 1550 c39 -4 88 -10 110 -13 34 -5 32 -4 -10 7 -27 8 -77 14
-110 14 l-60 -1 70 -7z"/>
<path d="M620 1539 c-27 -11 -90 -68 -90 -81 0 -5 14 7 30 26 17 19 50 41 73
50 23 8 35 14 27 15 -8 0 -26 -5 -40 -10z"/>
<path d="M970 1495 c25 -13 50 -24 55 -24 6 0 -10 11 -35 24 -25 13 -49 24
-55 24 -5 0 10 -11 35 -24z"/>
<path d="M522 1420 c0 -14 2 -19 5 -12 2 6 2 18 0 25 -3 6 -5 1 -5 -13z"/>
<path d="M793 1358 c-12 -6 -27 -23 -34 -39 -34 -84 96 -217 231 -235 55 -7
93 7 116 41 16 24 15 28 0 70 -43 110 -225 206 -313 163z m149 -63 c40 -16 98
-77 98 -102 0 -25 -30 -53 -58 -53 -14 0 -45 9 -69 21 -129 62 -102 189 29
134z"/>
<path d="M522 1335 c0 -16 2 -22 5 -12 2 9 2 23 0 30 -3 6 -5 -1 -5 -18z"/>
<path d="M530 1295 c0 -5 5 -17 10 -25 5 -8 10 -10 10 -5 0 6 -5 17 -10 25 -5
8 -10 11 -10 5z"/>
<path d="M571 1210 c29 -51 128 -149 198 -196 58 -39 172 -94 193 -94 7 0 -18
15 -57 32 -138 61 -267 165 -324 261 -30 50 -38 48 -10 -3z"/>
<path d="M988 913 c7 -3 16 -2 19 1 4 3 -2 6 -13 5 -11 0 -14 -3 -6 -6z"/>
<path d="M1210 910 c-21 -7 -21 -8 -5 -9 11 0 27 4 35 9 18 11 5 11 -30 0z"/>
<path d="M1033 903 c9 -2 23 -2 30 0 6 3 -1 5 -18 5 -16 0 -22 -2 -12 -5z"/>
<path d="M1103 893 c15 -2 39 -2 55 0 15 2 2 4 -28 4 -30 0 -43 -2 -27 -4z"/>
</g>
</svg>
